<svg xmlns="http://www.w3.org/2000/svg" viewBox="0 0 561.8 499.8"><defs><style>.cls-1{fill:#00d8ff;}.cls-2{fill:none;stroke:#00d8ff;stroke-width:24px;}</style></defs><title>react</title><g id="Layer_2" data-name="Layer 2"><g id="Layer_1-2" data-name="Layer 1"><circle id="Oval" class="cls-1" cx="280.9" cy="249.43" r="50.17"/><path id="Shape" class="cls-2" d="M280.9,147.43c67.36,0,129.93,9.66,177.11,25.91,56.84,19.57,91.79,49.23,91.79,76.09,0,28-37,59.5-98.08,79.73-46.15,15.29-106.88,23.27-170.82,23.27-65.55,0-127.63-7.49-174.29-23.44C47.57,308.81,12,276.89,12,249.43c0-26.64,33.37-56.08,89.41-75.62,47.35-16.51,111.47-26.38,179.49-26.38Z"/><path id="Shape-2" data-name="Shape" class="cls-2" d="M192.11,198.72C225.76,140.38,265.39,91,303,58.24,348.38,18.78,391.53,3.32,414.8,16.74c24.25,14,33,61.81,20.07,124.8-9.81,47.62-33.23,104.21-65.18,159.6C336.94,357.92,299.44,408,262.32,440.41c-47,41.07-92.4,55.93-116.19,42.21-23.08-13.31-31.91-56.92-20.83-115.23,9.35-49.27,32.83-109.74,66.81-168.66Z"/><path id="Shape-3" data-name="Shape" class="cls-2" d="M192.19,301.28C158.45,243,135.46,184,125.88,135,114.34,76,122.5,30.92,145.75,17.46,170,3.44,215.8,19.71,263.89,62.4c36.36,32.28,73.69,80.84,105.72,136.17,32.84,56.73,57.46,114.21,67,162.58,12.12,61.21,2.31,108-21.45,121.74-23.06,13.35-65.25-.78-110.24-39.5-38-32.71-78.68-83.25-112.76-142.11Z"/></g></g></svg>