<?xml version="1.0" encoding="utf-8"?>
<!-- Generator: Adobe Illustrator 21.0.0, SVG Export Plug-In . SVG Version: 6.00 Build 0)  -->
<svg version="1.1" id="Layer_1" xmlns:sketch="http://www.bohemiancoding.com/sketch/ns"
	 xmlns="http://www.w3.org/2000/svg" xmlns:xlink="http://www.w3.org/1999/xlink" x="0px" y="0px" viewBox="0 0 1616 506"
	 style="enable-background:new 0 0 1616 506;" xml:space="preserve">
<style type="text/css">
	.st0{fill:#00D8FF;}
	.st1{fill:none;stroke:#00D8FF;stroke-width:24;}
</style>
<title>react-logo</title>
<desc>Created with Sketch.</desc>
<g>
	<circle id="Oval" sketch:type="MSShapeGroup" class="st0" cx="281.5" cy="254.6" r="50.2">
	</circle>
	<path id="Shape" sketch:type="MSShapeGroup" class="st1" d="M281.5,152.6c67.4,0,129.9,9.7,177.1,25.9
		c56.8,19.6,91.8,49.2,91.8,76.1c0,28-37,59.5-98.1,79.7c-46.2,15.3-106.9,23.3-170.8,23.3c-65.6,0-127.6-7.5-174.3-23.4
		c-59-20.2-94.6-52.1-94.6-79.6C12.6,228,46,198.6,102,179C149.4,162.5,213.5,152.6,281.5,152.6L281.5,152.6z"/>
	<path id="Shape_1_" sketch:type="MSShapeGroup" class="st1" d="M192.7,203.9C226.4,145.6,266,96.2,303.7,63.4
		C349,24,392.2,8.5,415.4,21.9c24.2,14,33,61.8,20.1,124.8c-9.8,47.6-33.2,104.2-65.2,159.6c-32.7,56.8-70.2,106.8-107.4,139.3
		c-47,41.1-92.4,55.9-116.2,42.2c-23.1-13.3-31.9-56.9-20.8-115.2C135.3,323.3,158.8,262.8,192.7,203.9L192.7,203.9z"/>
	<path id="Shape_2_" sketch:type="MSShapeGroup" class="st1" d="M192.8,306.5c-33.7-58.3-56.7-117.3-66.3-166.3
		c-11.5-59-3.4-104.1,19.9-117.6c24.2-14,70.1,2.2,118.1,44.9c36.4,32.3,73.7,80.8,105.7,136.2c32.8,56.7,57.5,114.2,67,162.6
		c12.1,61.2,2.3,108-21.5,121.7c-23.1,13.3-65.2-0.8-110.2-39.5C267.6,415.9,226.9,365.3,192.8,306.5L192.8,306.5z"/>
</g>
<path id="React" sketch:type="MSShapeGroup" class="st0" d="M895.6,350l-68.4-103.4c34.6-3,65.7-28.1,65.7-73.7
	c0-46.7-33.1-76.4-79.4-76.4H711.6V350h31.5V249.3h50.5L858.3,350H895.6z M809.7,221.6h-66.5v-96.9h66.5c30,0,50.5,19.8,50.5,48.3
	S839.7,221.6,809.7,221.6L809.7,221.6z M1013,354.6c30,0,54.7-9.9,73-28.1l-13.7-18.6c-14.4,14.8-35.7,23.2-56.6,23.2
	c-39.5,0-63.8-28.9-66.1-63.5h148.6v-7.2c0-55.1-32.7-98.4-88.2-98.4c-52.4,0-90.4,42.9-90.4,96.1
	C919.5,315.4,958.6,354.6,1013,354.6L1013,354.6z M1070,246.6H949.5c1.5-28.1,20.9-61.2,60-61.2
	C1051.4,185.5,1069.6,219.3,1070,246.6L1070,246.6z M1287.3,350V223.8c0-44.5-32.3-61.9-71.1-61.9c-30,0-53.6,9.9-73.3,30.4
	l13.3,19.8c16.3-17.5,34.2-25.5,56.2-25.5c26.6,0,46.4,14.1,46.4,38.8v33.1c-14.8-17.1-35.7-25.1-60.8-25.1
	c-31.2,0-64.2,19.4-64.2,60.4c0,39.9,33.1,60.8,64.2,60.8c24.7,0,45.6-8.7,60.8-25.5V350H1287.3z M1208.3,334
	c-26.6,0-45.2-16.7-45.2-39.9c0-23.6,18.6-40.3,45.2-40.3c20.1,0,39.5,7.6,50.5,22.8v34.6C1247.8,326.4,1228.4,334,1208.3,334
	L1208.3,334z M1425.3,354.6c33.4,0,53.2-13.7,67.3-31.9l-19-17.5c-12.2,16.3-27.7,23.9-46.7,23.9c-39.1,0-63.5-30.4-63.5-71.1
	s24.3-70.7,63.5-70.7c19,0,34.6,7.2,46.7,23.9l19-17.5c-14.1-18.2-33.8-31.9-67.3-31.9c-54.7,0-91.6,41.8-91.6,96.1
	C1333.7,312.8,1370.6,354.6,1425.3,354.6L1425.3,354.6z M1578.8,354.6c16.7,0,27-4.9,34.2-11.8l-8.4-21.3
	c-3.8,4.2-11.4,7.6-19.4,7.6c-12.5,0-18.6-9.9-18.6-23.6v-114h37.2v-25.1h-37.2v-50.2h-28.5v50.2h-30.4v25.1h30.4v120.1
	C1538.1,339,1551.8,354.6,1578.8,354.6L1578.8,354.6z"/>
</svg>
