<?xml version="1.0" encoding="utf-8"?>
<!-- Generator: Adobe Illustrator 21.0.0, SVG Export Plug-In . SVG Version: 6.00 Build 0)  -->
<svg version="1.1" id="Layer_1" xmlns="http://www.w3.org/2000/svg" xmlns:xlink="http://www.w3.org/1999/xlink" x="0px" y="0px"
	 viewBox="0 0 256 255" style="enable-background:new 0 0 256 255;" xml:space="preserve">
<style type="text/css">
	.st0{fill:#464342;}
</style>
<path class="st0" d="M18.1,127.5c0,43.3,25.2,80.7,61.6,98.4L27.6,83C21.3,97,18.1,112.2,18.1,127.5z M201.3,122
	c0-13.5-4.9-22.9-9-30.2c-5.5-9-10.7-16.6-10.7-25.7c0-10.1,7.6-19.4,18.4-19.4c0.5,0,0.9,0.1,1.4,0.1C181.9,29,156,18.1,127.5,18.1
	c-38.2,0-71.8,19.6-91.4,49.3c2.6,0.1,5,0.1,7,0.1c11.4,0,29.2-1.4,29.2-1.4c5.9-0.3,6.6,8.3,0.7,9c0,0-5.9,0.7-12.5,1l39.8,118.5
	l23.9-71.8l-17-46.7c-5.9-0.3-11.5-1-11.5-1c-5.9-0.3-5.2-9.4,0.7-9c0,0,18.1,1.4,28.8,1.4c11.4,0,29.2-1.4,29.2-1.4
	c5.9-0.3,6.6,8.3,0.7,9c0,0-5.9,0.7-12.5,1l39.5,117.6l10.9-36.5C197.7,142.2,201.3,131.3,201.3,122L201.3,122z M129.4,137.1
	l-32.8,95.4c10,3,20.4,4.5,30.9,4.5c12.7,0,25-2.2,36.3-6.2c-0.3-0.5-0.6-1-0.8-1.5L129.4,137.1L129.4,137.1z M223.5,75
	c0.5,3.7,0.7,7.5,0.7,11.2c0,11.1-2.1,23.6-8.3,39.2L182.5,222c32.5-19,54.4-54.2,54.4-94.5C236.9,108.5,232,90.6,223.5,75L223.5,75
	z M127.5,0C57.2,0,0,57.2,0,127.5C0,197.8,57.2,255,127.5,255c70.3,0,127.5-57.2,127.5-127.5C255,57.2,197.8,0,127.5,0L127.5,0z
	 M127.5,249.2c-67.1,0-121.7-54.6-121.7-121.7C5.8,60.4,60.4,5.8,127.5,5.8c67.1,0,121.7,54.6,121.7,121.7
	C249.2,194.6,194.6,249.2,127.5,249.2z"/>
</svg>
