<svg xmlns="http://www.w3.org/2000/svg" viewBox="0 0 255.01 255.01"><defs><style>.cls-1{fill:#464342;}</style></defs><title>wordpress</title><g id="Layer_2" data-name="Layer 2"><g id="Layer_1-2" data-name="Layer 1"><path class="cls-1" d="M18.12,127.5a109.4,109.4,0,0,0,61.65,98.44L27.59,83A109,109,0,0,0,18.12,127.5ZM201.35,122c0-13.52-4.86-22.88-9-30.17-5.54-9-10.74-16.64-10.74-25.65,0-10.06,7.63-19.42,18.37-19.42.49,0,.94.06,1.42.09A109.36,109.36,0,0,0,36.11,67.43c2.57.08,5,.13,7,.13,11.44,0,29.15-1.39,29.15-1.39,5.9-.35,6.59,8.31.7,9,0,0-5.93.7-12.52,1L100.32,194.7l23.94-71.79-17-46.69c-5.89-.35-11.47-1-11.47-1-5.89-.35-5.2-9.36.69-9,0,0,18.06,1.39,28.81,1.39,11.44,0,29.15-1.39,29.15-1.39,5.9-.35,6.59,8.31.7,9,0,0-5.94.7-12.52,1L182.11,193.8,193,157.34c4.73-15.13,8.33-26,8.33-35.36Zm-71.92,15.09L96.61,232.43a109.44,109.44,0,0,0,67.22-1.74,9.61,9.61,0,0,1-.78-1.51l-33.62-92.11Zm94.06-62a84,84,0,0,1,.74,11.25c0,11.1-2.07,23.58-8.32,39.18L182.49,222a109.4,109.4,0,0,0,41-147Zm-96-75A127.5,127.5,0,1,0,255,127.5,127.65,127.65,0,0,0,127.5,0Zm0,249.16A121.66,121.66,0,1,1,249.16,127.5,121.8,121.8,0,0,1,127.5,249.16Z"/></g></g></svg>